<svg xmlns="http://www.w3.org/2000/svg" width="680" height="680">
  <path d="M0 0v680h680V0H0zm44.453 44.453h591.094v591.094H44.453V44.453zM167.203 90C124.802 90 90 124.802 90 167.203s34.802 77.203 77.203 77.203 77.203-34.802 77.203-77.203S209.604 90 167.203 90zM340 90c-42.401 0-77.203 34.802-77.203 77.203s34.802 77.203 77.203 77.203 77.203-34.802 77.203-77.203S382.401 90 340 90zm172.797 0c-42.401 0-77.203 34.802-77.203 77.203s34.801 77.203 77.203 77.203c42.401 0 77.203-34.802 77.203-77.203S555.198 90 512.797 90zm-345.594 40c20.784 0 37.203 16.42 37.203 37.203 0 20.784-16.42 37.203-37.203 37.203-20.784 0-37.203-16.42-37.203-37.203C130 146.42 146.42 130 167.203 130zM340 130c20.784 0 37.203 16.42 37.203 37.203 0 20.784-16.42 37.203-37.203 37.203-20.784 0-37.203-16.42-37.203-37.203C302.797 146.42 319.217 130 340 130zm172.797 0C533.58 130 550 146.42 550 167.203c0 20.784-16.42 37.203-37.203 37.203-20.784 0-37.203-16.42-37.203-37.203 0-20.784 16.42-37.203 37.203-37.203zM167.203 262.797C124.802 262.797 90 297.599 90 340s34.802 77.203 77.203 77.203 77.203-34.802 77.203-77.203-34.802-77.203-77.203-77.203zm172.797 0c-42.401 0-77.203 34.802-77.203 77.203s34.802 77.203 77.203 77.203 77.203-34.802 77.203-77.203-34.802-77.203-77.203-77.203zm172.797 0c-42.401 0-77.203 34.802-77.203 77.203s34.801 77.203 77.203 77.203C555.198 417.203 590 382.401 590 340s-34.802-77.203-77.203-77.203zm-345.594 40c20.784 0 37.203 16.42 37.203 37.203 0 20.784-16.42 37.203-37.203 37.203C146.42 377.203 130 360.783 130 340c0-20.784 16.42-37.203 37.203-37.203zm172.797 0c20.784 0 37.203 16.42 37.203 37.203 0 20.784-16.42 37.203-37.203 37.203-20.784 0-37.203-16.42-37.203-37.203 0-20.784 16.42-37.203 37.203-37.203zm172.797 0C533.58 302.797 550 319.217 550 340c0 20.784-16.42 37.203-37.203 37.203-20.784 0-37.203-16.42-37.203-37.203 0-20.784 16.42-37.203 37.203-37.203zM167.203 435.594c-42.401 0-77.203 34.801-77.203 77.203C90 555.198 124.802 590 167.203 590s77.203-34.802 77.203-77.203-34.802-77.203-77.203-77.203zm172.797 0c-42.401 0-77.203 34.801-77.203 77.203C262.797 555.198 297.599 590 340 590s77.203-34.802 77.203-77.203-34.802-77.203-77.203-77.203zm172.797 0c-42.401 0-77.203 34.801-77.203 77.203 0 42.401 34.801 77.203 77.203 77.203C555.198 590 590 555.198 590 512.797s-34.802-77.203-77.203-77.203zm-345.594 40c20.784 0 37.203 16.42 37.203 37.203 0 20.784-16.42 37.203-37.203 37.203C146.42 550 130 533.58 130 512.797c0-20.784 16.42-37.203 37.203-37.203zm172.797 0c20.784 0 37.203 16.42 37.203 37.203C377.203 533.58 360.783 550 340 550c-20.784 0-37.203-16.42-37.203-37.203 0-20.784 16.42-37.203 37.203-37.203zm172.797 0c20.784 0 37.203 16.42 37.203 37.203C550 533.58 533.58 550 512.797 550c-20.784 0-37.203-16.42-37.203-37.203 0-20.784 16.42-37.203 37.203-37.203z"/>
</svg>
