<svg xmlns="http://www.w3.org/2000/svg" width="680" height="680">
  <path d="M0 0v680h680V0H0zm44.453 44.453h591.094v591.094H44.453V44.453zm65.451 95.348l-.002.002-6.283 4.31c-3.529 2.415-6.795 5.539-9.185 9.067l-3.989 5.922L90.082 336c-.124 62.489-.106 106.592.041 135.646.073 14.528.174 25.28.322 32.715.075 3.718.143 6.587.24 8.74.098 2.154.08 3.109.485 4.997 1.16 5.409 3.864 9.968 8.26 14.02 2.991 2.757 5.844 5.134 9.748 6.364 3.904 1.23 7.739 1.336 13.941 1.532 1.96.061 8.742.054 20.867.082 12.126.027 29.077.064 49.594.078 41.034.03 96.392.034 156.15 0 98.689-.057 153.07-.136 183.266-.403 15.098-.134 24.103-.342 29.733-.603 5.629-.261 7.565.001 10.917-1.732 3.937-2.036 7-5.097 9.788-8.461 2.787-3.364 5.226-6.399 6.084-11.2.188-1.058.107-.997.123-1.29.014-.294.03-.62.04-1.006.021-.775.064-1.8.083-3.102.036-2.606.052-6.29.08-10.959.057-9.339.091-22.587.12-38.795.055-32.416.049-76.642-.042-124.85-.157-84.545-.243-128.382-.563-151.72-.161-11.67-.352-18.185-.683-22.358-.331-4.172-1.121-6.903-1.936-8.543-2.232-4.493-5.56-7.707-9.547-10.476l-7.01-4.875H109.905zm230.239 35.738h213.843l.041.443c.219 11.38.337 77.75.364 141.286.013 31.768.004 62.885-.043 86.295-.023 11.704-.042 21.497-.08 28.44-.004.805.005 1.169 0 1.895-3.244-3.135-6.57-6.294-11.282-10.92-12.534-12.305-29.654-29.289-48.343-47.98-39.449-39.452-57.913-58.23-69.899-67.842-11.986-9.61-19.727-9.67-29.086-9.67-10.669 0-14.704.883-22.199 4.432-4.04 1.913-7.918 4.41-14.824 10.715-6.907 6.305-17.435 16.734-36.461 35.695-11.394 11.355-21.883 21.665-29.57 29.129a840.348 840.348 0 01-8.258 7.936 456.947 456.947 0 01-4.996-4.754c-5.691-5.497-13.42-13.135-21.795-21.514-13.989-13.996-21.807-21.694-27.315-26.588-5.507-4.894-9.192-7.19-13.174-9.025-7.454-3.436-11.69-4.277-21.392-4.23-8.76.04-16.115.938-23.932 5.882s-16.212 13.123-31.303 27.998a787.974 787.974 0 01-14.3 13.738c-.07-5.271-.141-10.8-.201-18.41-.155-19.647-.255-45.82-.323-72.033s-.092-52.461-.04-72.314c.025-9.927.058-18.238.12-24.133.016-1.534.064-2.397.082-3.584 1.198-.05 1.86-.118 3.545-.162 6.934-.184 18.107-.337 34.727-.444 33.239-.213 88.387-.28 176.094-.28zm143.945 31.22c-10.657 0-14.738.86-21.916 4.391-15.725 7.738-26.9 22.986-29.25 40.127-2.083 15.194 4.778 32.537 16.478 43.108 6.892 6.226 11.937 9.132 20.143 11.48 4.295 1.23 8.376 2.246 12.25 2.336 14.043.322 30.035-5.86 39.117-15.912 3.268-3.617 6.598-8.993 8.903-13.857 3.34-7.051 4.192-11.298 4.15-21.23-.036-8.815-.824-14.018-3.143-19.864-4.344-10.95-14.473-21.168-25.582-26.59-6.434-3.14-10.748-3.988-21.15-3.988zm-.158 34.99h.002c3.358-.112 6.39 1.177 9.341 3.769 4.443 3.9 4.276 3.584 5.237 9.425 1.172 7.128-1.411 12.222-7.936 15.551-5.889 3.005-14.737.98-18.894-4.512-4.81-6.352-2.616-17.7 3.707-21.392 3.122-1.823 5.93-2.756 8.543-2.842zm-88.403 91.38c2.538-.039 5.004.3 6.375.976v.002c.289.247.633.557 1.13 1.006 1.199 1.085 2.895 2.687 5.034 4.715 4.28 4.057 10.27 9.837 17.485 16.881 14.43 14.088 33.84 33.238 54.67 54.064l73.884 73.887.284 10.676c.097 3.349.077 5.963 0 8.178-2.53.088-5.599.201-9.83.28-9.782.187-23.715.316-40.409.444-33.387.258-77.8.425-122.191.444-44.391.018-88.77-.093-122.107-.323-16.67-.113-30.585-.266-40.329-.443-.4-.007-.54-.034-.925-.041 4.55-4.767 10.012-10.381 17.162-17.686 16.481-16.838 38.653-39.208 61.035-61.6 22.382-22.39 44.961-44.821 62.322-61.839 8.68-8.509 16.079-15.652 21.434-20.748 2.677-2.548 4.858-4.602 6.404-6.002.773-.7 1.377-1.24 1.774-1.572 1.653-.841 4.261-1.26 6.798-1.3zm-199.109 21.55c1.929.057 3.932.594 6.043 1.606.12.077.4.25.666.463.546.436 1.334 1.134 2.295 1.975a338.697 338.697 0 017.496 6.808c5.974 5.571 13.55 12.869 20.988 20.143 7.439 7.274 14.75 14.519 20.143 20.062 2.053 2.111 3.491 3.668 4.875 5.159-2.478 2.593-5.99 6.225-10.393 10.716-8.973 9.154-21.372 21.657-35.01 35.291l-47.619 47.659h-21.23c-8.699 0-14.73-.12-18.412-.323h-.04a499.3 499.3 0 01-.243-8.943c-.166-8.576-.261-20.263-.282-32.955l-.08-43.469 28.645-28.766c8.385-8.421 16.594-16.441 23.004-22.558 3.205-3.058 5.93-5.646 8.017-7.535 2.087-1.89 4.028-3.336 3.545-3.022 2.465-1.602 4.961-2.39 7.592-2.31z"/>
</svg>
