<svg xmlns="http://www.w3.org/2000/svg" width="680" height="680">
  <path d="M0 0v680h680V0H0zm44.453 44.453h591.094v591.094H44.453V44.453zM340 90C202.24 90 90 202.24 90 340s112.24 250 250 250c34.33 0 62.734-28.404 62.734-62.734 0-16.003-6.179-31.141-16.453-42.254l.35.388c-1.946-2.197-2.996-4.588-2.996-8.07 0-7.12 5.054-12.174 12.172-12.174h44.07c82.59 0 150.123-67.533 150.123-150.125C590 189.303 476.233 90 340 90zm-.035 50.533l.035.03c111.955 0 199.44 79.472 199.44 174.468a99.249 99.249 0 01-99.565 99.563h-44.068c-34.33 0-62.735 28.404-62.735 62.734 0 15.742 5.945 30.581 15.73 41.617l.16.18.157.182c1.962 2.12 3.018 4.457 3.018 7.93 0 7.12-5.053 12.173-12.172 12.173-110.428 0-199.44-89.01-199.44-199.437 0-110.43 89.012-199.44 199.44-199.44zM277.4 163.57v.002a38.294 38.294 0 00-38.295 38.293A38.294 38.294 0 00277.4 240.16a38.294 38.294 0 0038.293-38.295A38.294 38.294 0 00277.4 163.57zm125.403 1.684a38.294 38.294 0 00-38.293 38.295 38.294 38.294 0 0038.293 38.295 38.294 38.294 0 0038.295-38.295 38.294 38.294 0 00-38.293-38.295h-.002zm74.064 98.469l.002.002a38.294 38.294 0 00-38.297 38.295 38.294 38.294 0 0038.295 38.293 38.294 38.294 0 0038.293-38.295 38.294 38.294 0 00-38.293-38.295zm-273.531.845a38.294 38.294 0 00-38.295 38.293 38.294 38.294 0 0038.295 38.295 38.294 38.294 0 0038.295-38.295 38.294 38.294 0 00-38.293-38.293h-.002z"/>
</svg>
